HIERARCHY
ROOT Hips
{
	OFFSET -0.001795 -0.223333 0.028219
	CHANNELS 6 Xposition Yposition Zposition Zrotation Yrotation Xrotation 
	JOINT LeftUpLeg
	{
		OFFSET 0.069520 -0.091406 -0.006815
		CHANNELS 3 Zrotation Yrotation Xrotation
		JOINT LeftLeg
		{
			OFFSET 0.034277 -0.375199 -0.004496
			CHANNELS 3 Zrotation Yrotation Xrotation
			JOINT LeftFoot
			{
				OFFSET -0.013596 -0.397961 -0.043693
				CHANNELS 3 Zrotation Yrotation Xrotation
				JOINT LeftToe
				{
					OFFSET 0.026358 -0.055791 0.119288
					CHANNELS 3 Zrotation Yrotation Xrotation
					End Site
					{
						OFFSET 0.000000 0.000000 0.000000
					}
				}
			}
		}
	}
	JOINT RightUpLeg
	{
		OFFSET -0.067670 -0.090522 -0.004320
		CHANNELS 3 Zrotation Yrotation Xrotation
		JOINT RightLeg
		{
			OFFSET -0.038290 -0.382569 -0.008850
			CHANNELS 3 Zrotation Yrotation Xrotation
			JOINT RightFoot
			{
				OFFSET 0.015774 -0.398415 -0.042312
				CHANNELS 3 Zrotation Yrotation Xrotation
				JOINT RightToe
				{
					OFFSET -0.025372 -0.048144 0.123348
					CHANNELS 3 Zrotation Yrotation Xrotation
					End Site
					{
						OFFSET 0.000000 0.000000 0.000000
					}
				}
			}
		}
	}
	JOINT Spine
	{
		OFFSET -0.002533 0.108963 -0.026696
		CHANNELS 3 Zrotation Yrotation Xrotation
		JOINT Spine1
		{
			OFFSET 0.005487 0.135180 0.001092
			CHANNELS 3 Zrotation Yrotation Xrotation
			JOINT Spine2
			{
				OFFSET 0.001457 0.052922 0.025425
				CHANNELS 3 Zrotation Yrotation Xrotation
				JOINT Neck
				{
					OFFSET -0.002778 0.213870 -0.042857
					CHANNELS 3 Zrotation Yrotation Xrotation
					JOINT Head
					{
						OFFSET 0.005152 0.064970 0.051349
						CHANNELS 3 Zrotation Yrotation Xrotation
						End Site
						{
							OFFSET 0.000000 0.000000 0.000000
						}
					}
				}
				JOINT LeftShoulder
				{
					OFFSET 0.078845 0.121749 -0.034090
					CHANNELS 3 Zrotation Yrotation Xrotation
					JOINT LeftArm
					{
						OFFSET 0.090977 0.030469 -0.008868
						CHANNELS 3 Zrotation Yrotation Xrotation
						JOINT LeftForeArm
						{
							OFFSET 0.259612 -0.012772 -0.027456
							CHANNELS 3 Zrotation Yrotation Xrotation
							JOINT LeftHand
							{
								OFFSET 0.249234 0.008986 -0.001171
								CHANNELS 3 Zrotation Yrotation Xrotation
								End Site
								{
									OFFSET 0.000000 0.000000 0.000000
								}
							}
						}
					}
				}
				JOINT RightShoulder
				{
					OFFSET -0.081759 0.118833 -0.038615
					CHANNELS 3 Zrotation Yrotation Xrotation
					JOINT RightArm
					{
						OFFSET -0.096012 0.032551 -0.009143
						CHANNELS 3 Zrotation Yrotation Xrotation
						JOINT RightForeArm
						{
							OFFSET -0.253742 -0.013329 -0.021401
							CHANNELS 3 Zrotation Yrotation Xrotation
							JOINT RightHand
							{
								OFFSET -0.255298 0.007772 -0.005559
								CHANNELS 3 Zrotation Yrotation Xrotation
								End Site
								{
									OFFSET 0.000000 0.000000 0.000000
								}
							}
						}
					}
				}
			}
		}
	}
}
MOTION
Frames: 6
Frame Time: 0.050000
0.045891 0.960215 -0.080629 -0.147535 -4.433035 10.931291 5.507283 -0.784831 -16.808775 -0.676041 -0.151283 11.647093 3.091954 8.115154 6.640473 0.000000 0.000000 0.000000 -4.631464 1.655453 -20.964635 -4.567433 1.185517 8.752088 4.320196 2.516308 12.692145 0.000000 0.000000 0.000000 4.094546 -0.404461 2.857817 1.891174 -0.550469 -8.864717 -8.025989 3.295096 7.657775 14.226127 -5.222551 -25.399977 0.000000 0.000000 0.000000 17.222833 -10.270843 3.535717 -30.296851 -36.635128 4.516220 89.059589 -36.809636 -33.759551 0.000000 0.000000 0.000000 -12.456656 3.855270 1.628830 37.514926 33.561180 6.515150 -84.455331 42.710264 -33.247488 0.000000 0.000000 0.000000 
0.045926 0.960524 -0.084908 -0.095436 -4.058314 10.642172 5.472372 -0.799426 -16.884506 -0.588008 -0.181202 11.785962 2.774388 7.635640 6.979408 0.000000 0.000000 0.000000 -4.548288 1.615980 -20.532855 -4.372787 1.126150 8.474450 4.130976 2.177677 12.717672 0.000000 0.000000 0.000000 3.811236 -0.371976 2.731734 2.219243 -0.665694 -8.886162 -8.103838 2.415501 7.748505 14.405389 -5.416481 -25.283898 0.000000 0.000000 0.000000 17.220540 -10.727968 3.524464 -29.775034 -36.938950 4.556800 89.874177 -33.990599 -31.202777 0.000000 0.000000 0.000000 -12.020114 3.948249 1.710369 37.133269 34.275317 6.549364 -85.413745 40.590465 -32.190806 0.000000 0.000000 0.000000 
0.045809 0.961362 -0.088105 -0.089451 -4.264692 10.546862 5.340262 -0.797335 -16.532358 -0.195610 -0.249451 11.074908 2.558949 7.358920 7.577254 0.000000 0.000000 0.000000 -4.435096 1.599585 -20.055906 -4.243471 1.046441 7.799891 4.047727 1.859974 12.936498 0.000000 0.000000 0.000000 3.682495 -0.337549 2.396700 2.226024 -0.668272 -8.977853 -7.874975 2.247868 7.688036 14.076608 -5.427577 -24.607502 0.000000 0.000000 0.000000 16.829489 -11.105555 3.555810 -29.018664 -36.670204 4.363483 90.711539 -32.264574 -29.841422 0.000000 0.000000 0.000000 -11.606124 4.246181 1.805757 36.721443 34.706409 6.533743 -86.535801 38.902800 -31.417159 0.000000 0.000000 0.000000 
0.045666 0.962064 -0.091250 -0.096352 -3.978338 10.511789 5.274272 -0.800512 -16.125409 -0.154381 -0.246635 10.255222 2.395869 7.173753 7.950892 0.000000 0.000000 0.000000 -4.400050 1.574080 -19.797495 -4.068340 0.984444 7.416065 4.000209 1.701109 13.144174 0.000000 0.000000 0.000000 3.477866 -0.288281 1.885087 2.351931 -0.717847 -8.778081 -7.619043 1.742866 7.597747 13.771831 -5.307807 -24.602262 0.000000 0.000000 0.000000 16.841261 -11.164221 3.519173 -28.020177 -36.897066 4.237376 91.001158 -30.295378 -27.920274 0.000000 0.000000 0.000000 -11.247501 4.821782 1.976356 35.645109 35.661026 6.506091 -86.182693 37.797438 -30.430971 0.000000 0.000000 0.000000 
0.045825 0.961723 -0.095271 -0.109357 -4.065746 10.296844 5.303418 -0.776830 -15.623743 -0.228714 -0.217903 9.663418 2.284356 6.964886 7.947595 0.000000 0.000000 0.000000 -4.461158 1.568836 -19.809353 -3.943735 0.983881 7.648498 4.141057 1.991306 13.091679 0.000000 0.000000 0.000000 3.471130 -0.293100 1.991740 2.322011 -0.711906 -8.722055 -7.402876 1.867241 7.341711 13.818688 -5.251722 -24.893137 0.000000 0.000000 0.000000 17.459167 -11.661939 3.614219 -26.542668 -37.058933 3.931236 89.719182 -27.661673 -24.942653 0.000000 0.000000 0.000000 -11.251158 5.456966 2.128996 34.254816 36.882690 6.532652 -84.736193 36.857077 -28.852198 0.000000 0.000000 0.000000 
0.046648 0.961070 -0.100142 -0.214095 -4.123072 10.095628 5.532422 -0.752371 -15.777811 -0.684691 -0.124658 9.590083 2.428783 7.153740 7.663521 0.000000 0.000000 0.000000 -4.413146 1.596035 -20.092267 -4.029442 1.023671 7.946727 4.275919 2.163744 13.248453 0.000000 0.000000 0.000000 3.360594 -0.309527 2.348800 2.307322 -0.708320 -8.707226 -7.025256 2.168441 7.066543 13.273343 -4.925059 -24.929452 0.000000 0.000000 0.000000 17.816300 -12.119658 3.728422 -24.714700 -37.178894 3.505960 88.055174 -25.274550 -22.234741 0.000000 0.000000 0.000000 -11.557832 6.411625 2.347661 32.133199 37.921031 6.298867 -83.034461 36.359280 -27.526804 0.000000 0.000000 0.000000 
